<svg xmlns="http://www.w3.org/2000/svg" width="42.808" height="42.808" viewBox="0 0 42.808 42.808">
  <path id="Icon_awesome-user-circle" data-name="Icon awesome-user-circle" d="M21.4.563a21.4,21.4,0,1,0,21.4,21.4A21.4,21.4,0,0,0,21.4.563Zm0,8.285a7.595,7.595,0,1,1-7.595,7.595A7.6,7.6,0,0,1,21.4,8.848Zm0,29.689A16.539,16.539,0,0,1,8.76,32.651a9.623,9.623,0,0,1,8.5-5.161,2.112,2.112,0,0,1,.613.095,11.427,11.427,0,0,0,3.53.6,11.384,11.384,0,0,0,3.53-.6,2.112,2.112,0,0,1,.613-.095,9.623,9.623,0,0,1,8.5,5.161A16.539,16.539,0,0,1,21.4,38.537Z" transform="translate(0 -0.563)" fill="#8273b0"/>
</svg>
