<svg xmlns="http://www.w3.org/2000/svg" width="44.404" height="44.404" viewBox="0 0 44.404 44.404">
  <path id="Icon_awesome-arrow-alt-circle-left" data-name="Icon awesome-arrow-alt-circle-left" d="M22.764,44.966a22.2,22.2,0,1,1,22.2-22.2A22.2,22.2,0,0,1,22.764,44.966ZM33.149,18.825H22.764V12.478a1.075,1.075,0,0,0-1.835-.761L10.7,22a1.064,1.064,0,0,0,0,1.513L20.929,33.8a1.074,1.074,0,0,0,1.835-.761V26.7H33.149a1.077,1.077,0,0,0,1.074-1.074V19.9A1.077,1.077,0,0,0,33.149,18.825Z" transform="translate(-0.563 -0.563)" fill="#8273b0"/>
</svg>
