<svg xmlns="http://www.w3.org/2000/svg" width="44.404" height="44.404" viewBox="0 0 44.404 44.404">
  <path id="Icon_awesome-clock" data-name="Icon awesome-clock" d="M22.764.563a22.2,22.2,0,1,0,22.2,22.2A22.2,22.2,0,0,0,22.764.563ZM27.876,31.9l-7.9-5.738a1.081,1.081,0,0,1-.439-.868V10.231a1.077,1.077,0,0,1,1.074-1.074h4.3a1.077,1.077,0,0,1,1.074,1.074V22.559l5.685,4.136a1.074,1.074,0,0,1,.233,1.5L29.38,31.672A1.082,1.082,0,0,1,27.876,31.9Z" transform="translate(-0.563 -0.563)" fill="#fe8465"/>
</svg>
